<svg width="192" height="59" viewBox="0 0 192 59" fill="none" xmlns="http://www.w3.org/2000/svg">
<rect width="192" height="59" rx="29.5" fill="#FFC85E"/>
<path d="M61.0447 35H63.7145L59.5582 29.5412L63.5305 24.8182H60.8509L57.4702 28.8849H57.0376V24.8182H54.8849V35H57.0376V30.6598H57.7734L61.0447 35ZM66.9348 35.1442C68.0634 35.1442 68.7942 34.652 69.1671 33.9411H69.2267V35H71.2353V29.8494C71.2353 28.0298 69.6941 27.2642 67.9938 27.2642C66.1642 27.2642 64.9611 28.1392 64.6678 29.5312L66.6266 29.6903C66.7708 29.1832 67.2232 28.8104 67.9838 28.8104C68.7047 28.8104 69.1174 29.1733 69.1174 29.7997V29.8295C69.1174 30.3217 68.5953 30.3864 67.2679 30.5156C65.7566 30.6548 64.3993 31.1619 64.3993 32.8672C64.3993 34.3786 65.4782 35.1442 66.9348 35.1442ZM67.5414 33.6825C66.8901 33.6825 66.4228 33.3793 66.4228 32.7976C66.4228 32.201 66.915 31.9077 67.6607 31.8033C68.123 31.7386 68.8787 31.6293 69.1323 31.4602V32.2706C69.1323 33.071 68.4711 33.6825 67.5414 33.6825ZM72.1252 29.0291H74.5662V35H76.5847V29.0291H79.0456V27.3636H72.1252V29.0291ZM82.2337 35.1442C83.3622 35.1442 84.093 34.652 84.4659 33.9411H84.5256V35H86.5341V29.8494C86.5341 28.0298 84.9929 27.2642 83.2926 27.2642C81.4631 27.2642 80.2599 28.1392 79.9666 29.5312L81.9254 29.6903C82.0696 29.1832 82.522 28.8104 83.2827 28.8104C84.0036 28.8104 84.4162 29.1733 84.4162 29.7997V29.8295C84.4162 30.3217 83.8942 30.3864 82.5668 30.5156C81.0554 30.6548 79.6982 31.1619 79.6982 32.8672C79.6982 34.3786 80.777 35.1442 82.2337 35.1442ZM82.8402 33.6825C82.1889 33.6825 81.7216 33.3793 81.7216 32.7976C81.7216 32.201 82.2138 31.9077 82.9595 31.8033C83.4219 31.7386 84.1776 31.6293 84.4311 31.4602V32.2706C84.4311 33.071 83.7699 33.6825 82.8402 33.6825ZM87.7298 35H88.3661C89.9869 35 90.8469 33.9261 90.9762 31.3608L91.0955 29.0291H92.9798V35H94.9982V27.3636H89.1914L89.0671 30.7443C88.9925 32.6783 88.6942 33.3196 87.9734 33.3196H87.7198L87.7298 35ZM100.09 35.1491C102.407 35.1491 103.849 33.5632 103.849 31.2116C103.849 28.8452 102.407 27.2642 100.09 27.2642C97.7736 27.2642 96.3319 28.8452 96.3319 31.2116C96.3319 33.5632 97.7736 35.1491 100.09 35.1491ZM100.1 33.5085C99.0314 33.5085 98.4846 32.5291 98.4846 31.1967C98.4846 29.8643 99.0314 28.88 100.1 28.88C101.149 28.88 101.696 29.8643 101.696 31.1967C101.696 32.5291 101.149 33.5085 100.1 33.5085ZM110.456 27.3636H105.226V35H107.284V29.0291H110.456V27.3636Z" fill="white"/>
<path d="M123.5 24C123.5 23.1716 124.172 22.5 125 22.5H129C129.276 22.5 129.5 22.7239 129.5 23V28C129.5 28.2761 129.276 28.5 129 28.5H124C123.724 28.5 123.5 28.2761 123.5 28V24Z" stroke="white"/>
<path d="M131.5 23C131.5 22.7239 131.724 22.5 132 22.5H136C136.828 22.5 137.5 23.1716 137.5 24V28C137.5 28.2761 137.276 28.5 137 28.5H132C131.724 28.5 131.5 28.2761 131.5 28V23Z" stroke="white"/>
<path d="M131.5 31C131.5 30.7239 131.724 30.5 132 30.5H137C137.276 30.5 137.5 30.7239 137.5 31V35C137.5 35.8284 136.828 36.5 136 36.5H132C131.724 36.5 131.5 36.2761 131.5 36V31Z" stroke="white"/>
<path d="M123.5 31C123.5 30.7239 123.724 30.5 124 30.5H129C129.276 30.5 129.5 30.7239 129.5 31V36C129.5 36.2761 129.276 36.5 129 36.5H125C124.172 36.5 123.5 35.8284 123.5 35V31Z" stroke="white"/>
</svg>
