<svg width="200" height="59" viewBox="0 0 200 59" fill="none" xmlns="http://www.w3.org/2000/svg">
<rect width="200" height="59" rx="29.5" fill="#FFC85E"/>
<path d="M53.0405 24.8182H44.6683V35H46.7962V26.5682H50.9126V35H53.0405V24.8182ZM55.0502 37.8636H57.1681V33.777H57.2328C57.5261 34.4134 58.1674 35.1243 59.4004 35.1243C61.1404 35.1243 62.4977 33.7472 62.4977 31.1918C62.4977 28.5668 61.0808 27.2642 59.4054 27.2642C58.1277 27.2642 57.5162 28.0249 57.2328 28.6463H57.1383V27.3636H55.0502V37.8636ZM57.1234 31.1818C57.1234 29.8196 57.7001 28.9496 58.7292 28.9496C59.7782 28.9496 60.335 29.8594 60.335 31.1818C60.335 32.5142 59.7683 33.4389 58.7292 33.4389C57.71 33.4389 57.1234 32.544 57.1234 31.1818ZM66.0872 35.1442C67.2157 35.1442 67.9466 34.652 68.3194 33.9411H68.3791V35H70.3876V29.8494C70.3876 28.0298 68.8464 27.2642 67.1461 27.2642C65.3166 27.2642 64.1135 28.1392 63.8201 29.5312L65.7789 29.6903C65.9231 29.1832 66.3755 28.8104 67.1362 28.8104C67.8571 28.8104 68.2697 29.1733 68.2697 29.7997V29.8295C68.2697 30.3217 67.7477 30.3864 66.4203 30.5156C64.9089 30.6548 63.5517 31.1619 63.5517 32.8672C63.5517 34.3786 64.6305 35.1442 66.0872 35.1442ZM66.6937 33.6825C66.0424 33.6825 65.5751 33.3793 65.5751 32.7976C65.5751 32.201 66.0673 31.9077 66.813 31.8033C67.2754 31.7386 68.0311 31.6293 68.2846 31.4602V32.2706C68.2846 33.071 67.6234 33.6825 66.6937 33.6825ZM74.0542 32.206V27.3636H72.0307V35H74.1337L76.873 30.1428V35H78.8915V27.3636H76.8034L74.0542 32.206ZM76.4405 24.6989C76.4405 25.1662 76.1621 25.5888 75.4561 25.5888C74.7303 25.5888 74.4618 25.1562 74.4668 24.6989H73.0002C73.0002 25.902 73.9498 26.7074 75.4561 26.7074C76.9625 26.7074 77.9121 25.902 77.9171 24.6989H76.4405ZM84.0396 35.1491C86.073 35.1491 87.3507 33.956 87.4501 32.201H85.4515C85.3272 33.0163 84.7903 33.4737 84.0645 33.4737C83.0751 33.4737 82.4338 32.6435 82.4338 31.1818C82.4338 29.7401 83.0801 28.9148 84.0645 28.9148C84.84 28.9148 85.3372 29.4268 85.4515 30.1875H87.4501C87.3606 28.4226 86.0233 27.2642 84.0297 27.2642C81.7129 27.2642 80.2811 28.87 80.2811 31.2116C80.2811 33.5334 81.688 35.1491 84.0396 35.1491ZM93.5639 29.9787H88.9205V31.6591H93.5639V29.9787ZM94.9212 35H95.5575C97.1783 35 98.0384 33.9261 98.1676 31.3608L98.2869 29.0291H100.171V35H102.19V27.3636H96.3828L96.2585 30.7443C96.1839 32.6783 95.8857 33.3196 95.1648 33.3196H94.9112L94.9212 35ZM105.855 32.206V27.3636H103.831V35H105.934L108.674 30.1428V35H110.692V27.3636H108.604L105.855 32.206ZM115.84 35.1491C117.874 35.1491 119.151 33.956 119.251 32.201H117.252C117.128 33.0163 116.591 33.4737 115.865 33.4737C114.876 33.4737 114.235 32.6435 114.235 31.1818C114.235 29.7401 114.881 28.9148 115.865 28.9148C116.641 28.9148 117.138 29.4268 117.252 30.1875H119.251C119.161 28.4226 117.824 27.2642 115.83 27.2642C113.514 27.2642 112.082 28.87 112.082 31.2116C112.082 33.5334 113.489 35.1491 115.84 35.1491ZM120.1 29.0291H122.541V35H124.559V29.0291H127.02V27.3636H120.1V29.0291Z" fill="white"/>
<path d="M152.958 27.375H150.125V23.125H145.875V27.375H143.042L148 33.0417L152.958 27.375ZM142.333 34.4583H153.667V35.875H142.333V34.4583Z" fill="white"/>
</svg>
