<svg width="153" height="45" viewBox="0 0 153 45" fill="none" xmlns="http://www.w3.org/2000/svg">
<rect width="153" height="45" rx="22.5" fill="#FFC85E"/>
<path d="M25.6321 26.5H28.7393C30.3729 26.5 31.2429 25.6477 31.2429 24.4901C31.2429 23.4141 30.4723 22.7642 29.6449 22.7251V22.6541C30.4013 22.4837 30.9588 21.9474 30.9588 21.0916C30.9588 20.0014 30.1491 19.2273 28.544 19.2273H25.6321V26.5ZM27.1697 25.2429V23.3111H28.4588C29.1974 23.3111 29.6555 23.7372 29.6555 24.3374C29.6555 24.8842 29.2827 25.2429 28.4233 25.2429H27.1697ZM27.1697 22.2706V20.4702H28.3381C29.0199 20.4702 29.407 20.8217 29.407 21.3473C29.407 21.9226 28.9382 22.2706 28.3097 22.2706H27.1697ZM41.9577 26.5H43.8647L40.896 22.6009L43.7333 19.2273H41.8192L39.4045 22.1321H39.0955V19.2273H37.5579V26.5H39.0955V23.3999H39.6211L41.9577 26.5ZM52.411 22.8636C52.411 20.4844 50.9338 19.1278 49.0055 19.1278C47.0666 19.1278 45.6 20.4844 45.6 22.8636C45.6 25.2322 47.0666 26.5994 49.0055 26.5994C50.9338 26.5994 52.411 25.2429 52.411 22.8636ZM50.8521 22.8636C50.8521 24.4048 50.1206 25.2393 49.0055 25.2393C47.8869 25.2393 47.1589 24.4048 47.1589 22.8636C47.1589 21.3224 47.8869 20.4879 49.0055 20.4879C50.1206 20.4879 50.8521 21.3224 50.8521 22.8636ZM55.0501 26.5H56.5877V24.142H57.8803C59.5529 24.142 60.5259 23.1442 60.5259 21.6918C60.5259 20.2464 59.5707 19.2273 57.9194 19.2273H55.0501V26.5ZM56.5877 22.9098V20.4844H57.6246C58.5124 20.4844 58.9421 20.9673 58.9421 21.6918C58.9421 22.4126 58.5124 22.9098 57.6317 22.9098H56.5877ZM65.6703 26.5994C67.3038 26.5994 68.4721 25.701 68.4686 24.4581C68.4721 23.5526 67.8968 22.9062 66.8279 22.7713V22.7145C67.6412 22.5689 68.2022 21.9936 68.1987 21.1768C68.2022 20.0298 67.1973 19.1278 65.6916 19.1278C64.2001 19.1278 63.0779 20.0014 63.0566 21.2585H64.5304C64.5481 20.7045 65.0559 20.3459 65.6845 20.3459C66.3059 20.3459 66.7214 20.7223 66.7179 21.2692C66.7214 21.8409 66.2349 22.228 65.5353 22.228H64.8571V23.3572H65.5353C66.3592 23.3572 66.8741 23.7692 66.8706 24.3551C66.8741 24.9339 66.377 25.3317 65.6738 25.3317C64.9956 25.3317 64.4877 24.9766 64.4593 24.4439H62.911C62.9359 25.7152 64.0723 26.5994 65.6703 26.5994ZM71.12 19.2273V26.5H72.4482L75.6122 21.9226H75.6655V26.5H77.2031V19.2273H75.8537L72.7145 23.8011H72.6506V19.2273H71.12ZM79.97 26.5H81.5076V23.4957H84.6291V26.5H86.1632V19.2273H84.6291V22.228H81.5076V19.2273H79.97V26.5ZM89.7157 26.5994H90.2626C91.4558 26.5994 91.9352 25.8821 92.301 25.0724L94.8081 19.2273H93.2385L91.8074 22.8068L90.0957 19.2273H88.5048L91.1468 24.4616L91.0581 24.6996C90.9089 25.1293 90.6958 25.3494 90.1099 25.3494H89.7157V26.5994Z" fill="white"/>
<path d="M125.447 17.0923C125.295 16.8793 125.09 16.7728 124.834 16.7728H108.487L108.043 15.6178C107.931 15.2391 107.779 14.9157 107.586 14.6474C107.393 14.3792 107.189 14.1899 106.972 14.0794C106.755 13.969 106.567 13.894 106.406 13.8546C106.246 13.8151 106.085 13.7954 105.925 13.7954H102.627C102.418 13.7954 102.241 13.8664 102.097 14.0084C101.953 14.1504 101.88 14.3319 101.88 14.5528C101.88 14.679 101.912 14.8013 101.977 14.9196C102.041 15.038 102.133 15.1287 102.254 15.1918C102.374 15.2549 102.498 15.2865 102.627 15.2865H105.925C105.989 15.2865 106.049 15.2944 106.105 15.3101C106.162 15.3259 106.238 15.393 106.334 15.5113C106.43 15.6296 106.511 15.8072 106.575 16.0438L110.028 25.5251C110.06 25.6197 110.112 25.7105 110.184 25.7973C110.257 25.884 110.341 25.9511 110.437 25.9984C110.533 26.0458 110.638 26.0694 110.75 26.0694H121.15C121.311 26.0694 121.459 26.0221 121.596 25.9274C121.732 25.8328 121.824 25.7144 121.872 25.5724L125.556 17.7905C125.636 17.5381 125.6 17.3053 125.447 17.0923ZM120.621 24.5547H111.352L108.896 18.2875H123.726L120.621 24.5547ZM119.232 26.8908C118.703 26.8908 118.249 27.0762 117.872 27.447C117.495 27.8178 117.306 28.2635 117.306 28.7842C117.306 29.3049 117.495 29.7506 117.872 30.1214C118.249 30.4922 118.703 30.6776 119.232 30.6776C119.762 30.6776 120.215 30.4922 120.592 30.1214C120.97 29.7506 121.158 29.3049 121.158 28.7842C121.158 28.2635 120.97 27.8178 120.592 27.447C120.215 27.0762 119.762 26.8908 119.232 26.8908ZM112.299 26.8908C111.946 26.8908 111.621 26.9776 111.324 27.1511C111.027 27.3247 110.794 27.5535 110.626 27.8375C110.457 28.1215 110.373 28.4371 110.373 28.7842C110.373 29.3049 110.561 29.7506 110.939 30.1214C111.316 30.4922 111.769 30.6776 112.299 30.6776C112.828 30.6776 113.282 30.4922 113.659 30.1214C114.036 29.7506 114.225 29.3049 114.225 28.7842C114.225 28.658 114.213 28.5318 114.189 28.4055C114.165 28.2793 114.129 28.161 114.08 28.0505C114.032 27.9401 113.972 27.8336 113.9 27.731C113.828 27.6284 113.747 27.5338 113.659 27.447C113.571 27.3602 113.474 27.2813 113.37 27.2103C113.266 27.1393 113.158 27.0801 113.045 27.0328C112.933 26.9855 112.812 26.95 112.684 26.9263C112.556 26.9026 112.427 26.8908 112.299 26.8908Z" fill="white"/>
</svg>
