<svg width="214" height="59" viewBox="0 0 214 59" fill="none" xmlns="http://www.w3.org/2000/svg">
<rect width="214" height="59" rx="29.5" fill="#FFC85E"/>
<path d="M60.0405 24.8182H51.6683V35H53.7962V26.5682H57.9126V35H60.0405V24.8182ZM62.0502 37.8636H64.1681V33.777H64.2328C64.5261 34.4134 65.1674 35.1243 66.4004 35.1243C68.1404 35.1243 69.4977 33.7472 69.4977 31.1918C69.4977 28.5668 68.0808 27.2642 66.4054 27.2642C65.1277 27.2642 64.5162 28.0249 64.2328 28.6463H64.1383V27.3636H62.0502V37.8636ZM64.1234 31.1818C64.1234 29.8196 64.7001 28.9496 65.7292 28.9496C66.7782 28.9496 67.335 29.8594 67.335 31.1818C67.335 32.5142 66.7683 33.4389 65.7292 33.4389C64.71 33.4389 64.1234 32.544 64.1234 31.1818ZM73.0872 35.1442C74.2157 35.1442 74.9466 34.652 75.3194 33.9411H75.3791V35H77.3876V29.8494C77.3876 28.0298 75.8464 27.2642 74.1461 27.2642C72.3166 27.2642 71.1135 28.1392 70.8201 29.5312L72.7789 29.6903C72.9231 29.1832 73.3755 28.8104 74.1362 28.8104C74.8571 28.8104 75.2697 29.1733 75.2697 29.7997V29.8295C75.2697 30.3217 74.7477 30.3864 73.4203 30.5156C71.9089 30.6548 70.5517 31.1619 70.5517 32.8672C70.5517 34.3786 71.6305 35.1442 73.0872 35.1442ZM73.6937 33.6825C73.0424 33.6825 72.5751 33.3793 72.5751 32.7976C72.5751 32.201 73.0673 31.9077 73.813 31.8033C74.2754 31.7386 75.0311 31.6293 75.2846 31.4602V32.2706C75.2846 33.071 74.6234 33.6825 73.6937 33.6825ZM81.0542 32.206V27.3636H79.0307V35H81.1337L83.873 30.1428V35H85.8915V27.3636H83.8034L81.0542 32.206ZM83.4405 24.6989C83.4405 25.1662 83.1621 25.5888 82.4561 25.5888C81.7303 25.5888 81.4618 25.1562 81.4668 24.6989H80.0002C80.0002 25.902 80.9498 26.7074 82.4561 26.7074C83.9625 26.7074 84.9121 25.902 84.9171 24.6989H83.4405ZM91.0396 35.1491C93.073 35.1491 94.3507 33.956 94.4501 32.201H92.4515C92.3272 33.0163 91.7903 33.4737 91.0645 33.4737C90.0751 33.4737 89.4338 32.6435 89.4338 31.1818C89.4338 29.7401 90.0801 28.9148 91.0645 28.9148C91.84 28.9148 92.3372 29.4268 92.4515 30.1875H94.4501C94.3606 28.4226 93.0233 27.2642 91.0297 27.2642C88.7129 27.2642 87.2811 28.87 87.2811 31.2116C87.2811 33.5334 88.688 35.1491 91.0396 35.1491ZM100.564 29.9787H95.9205V31.6591H100.564V29.9787ZM101.921 35H102.558C104.178 35 105.038 33.9261 105.168 31.3608L105.287 29.0291H107.171V35H109.19V27.3636H103.383L103.259 30.7443C103.184 32.6783 102.886 33.3196 102.165 33.3196H101.911L101.921 35ZM112.855 32.206V27.3636H110.831V35H112.934L115.674 30.1428V35H117.692V27.3636H115.604L112.855 32.206ZM122.84 35.1491C124.874 35.1491 126.151 33.956 126.251 32.201H124.252C124.128 33.0163 123.591 33.4737 122.865 33.4737C121.876 33.4737 121.235 32.6435 121.235 31.1818C121.235 29.7401 121.881 28.9148 122.865 28.9148C123.641 28.9148 124.138 29.4268 124.252 30.1875H126.251C126.161 28.4226 124.824 27.2642 122.83 27.2642C120.514 27.2642 119.082 28.87 119.082 31.2116C119.082 33.5334 120.489 35.1491 122.84 35.1491ZM127.1 29.0291H129.541V35H131.559V29.0291H134.02V27.3636H127.1V29.0291Z" fill="white"/>
<path d="M159.958 27.375H157.125V23.125H152.875V27.375H150.042L155 33.0417L159.958 27.375ZM149.333 34.4583H160.667V35.875H149.333V34.4583Z" fill="white"/>
</svg>
